<svg width="92" height="51" xmlns="http://www.w3.org/2000/svg" xmlns:xlink="http://www.w3.org/1999/xlink" xml:space="preserve" overflow="hidden"><g transform="translate(-1685 -760)"><path d="M1685.6 793.959C1684.65 785.008 1691.12 776.986 1700.05 776.04 1708.98 775.095 1716.99 781.584 1717.94 790.535 1718 791.142 1718.03 791.752 1718.03 792.363L1712.81 792.326C1712.84 786.21 1707.94 781.217 1701.84 781.174 1695.75 781.13 1690.77 786.053 1690.73 792.169 1690.73 792.583 1690.75 792.997 1690.8 793.409Z" fill-rule="evenodd"/><path d="M1713 793C1713 783.611 1720.61 776 1730 776 1739.39 776 1747 783.611 1747 793 1747 802.389 1739.39 810 1730 810 1720.61 810 1713 802.389 1713 793ZM1718.26 793C1718.26 799.482 1723.52 804.737 1730 804.737 1736.48 804.737 1741.74 799.482 1741.74 793 1741.74 786.518 1736.48 781.263 1730 781.263 1723.52 781.263 1718.26 786.518 1718.26 793Z" fill-rule="evenodd"/><path d="M1686 760.833C1686 760.373 1686.37 760 1686.83 760L1690.17 760C1690.63 760 1691 760.373 1691 760.833L1691 809.167C1691 809.627 1690.63 810 1690.17 810L1686.83 810C1686.37 810 1686 809.627 1686 809.167Z" fill-rule="evenodd"/><path d="M1776.09 792.207C1776.37 801.809 1768.82 809.841 1759.23 810.146 1749.63 810.451 1741.62 802.915 1741.34 793.313 1741.05 783.711 1748.6 775.68 1758.2 775.374 1761.99 775.254 1765.71 776.375 1768.8 778.568L1765.76 782.843C1760.3 778.965 1752.72 780.262 1748.83 785.739 1744.94 791.217 1746.21 798.8 1751.67 802.678 1757.13 806.555 1764.71 805.258 1768.6 799.781 1770.13 797.62 1770.92 795.02 1770.85 792.374Z" fill-rule="evenodd"/><path d="M1771 760.833C1771 760.373 1771.37 760 1771.83 760L1775.17 760C1775.63 760 1776 760.373 1776 760.833L1776 789.167C1776 789.627 1775.63 790 1775.17 790L1771.83 790C1771.37 790 1771 789.627 1771 789.167Z" fill-rule="evenodd"/></g></svg>